<svg xmlns:xlink="http://www.w3.org/1999/xlink" xmlns="http://www.w3.org/2000/svg" style="-webkit-print-color-adjust:exact" id="screenshot-ccd1b03f-b087-8057-8002-a1fe22ee7aa6" version="1.1" viewBox="-249.252 244.193 19.504 21.481">
  <g id="shape-ccd1b03f-b087-8057-8002-a1fe22ee7aa6">
    <g class="fills" id="fills-ccd1b03f-b087-8057-8002-a1fe22ee7aa6">
      <path rx="0" ry="0" d="M-245.943,265.674C-246.482,265.674,-246.949,265.477,-247.344,265.083C-247.740,264.689,-247.937,264.224,-247.937,263.687L-247.937,247.181L-249.252,247.181L-249.252,245.194L-243.469,245.194L-243.469,244.193L-235.538,244.193L-235.538,245.194L-229.748,245.194L-229.748,247.181L-231.063,247.181L-231.063,263.687C-231.063,264.224,-231.260,264.689,-231.656,265.083C-232.051,265.477,-232.518,265.674,-233.057,265.674L-245.943,265.674ZZM-242.887,261.235L-241.018,261.235L-241.018,249.597L-242.887,249.597L-242.887,261.235ZZM-237.982,261.235L-236.107,261.235L-236.107,249.597L-237.982,249.597L-237.982,261.235ZZ">
      </path>
    </g>
  </g>
</svg>
