<svg xmlns:xlink="http://www.w3.org/1999/xlink" xmlns="http://www.w3.org/2000/svg" style="-webkit-print-color-adjust:exact" id="screenshot-988d1e40-59de-80ee-8003-21a15507a9ff" version="1.1" viewBox="730.5 1537 31 32">
  <g id="shape-988d1e40-59de-80ee-8003-21a15507a9ff" version="1.1" height="250" rx="0" ry="0">
    <g id="shape-988d1e40-59de-80ee-8003-21a15507aa02">
      <g class="fills" id="fills-988d1e40-59de-80ee-8003-21a15507aa02">
        <path rx="0" ry="0" style="fill-rule:evenodd;stroke:none;opacity:1;fill-opacity:0" d="M737.424,1562.140L744.764,1567.067L759.685,1548.230L757.971,1540.056L752.117,1538.267L748.369,1539.951L744.693,1544.301L740.405,1541.559L734.201,1543.438L731.448,1554.085L737.424,1562.140Z">
        </path>
      </g>
    </g>
    <g id="shape-988d1e40-59de-80ee-8003-21a15507aa03">
      <g class="fills" id="fills-988d1e40-59de-80ee-8003-21a15507aa03">
        <path rx="0" ry="0" d="M733.757,1551.268C733.835,1544.383,737.481,1542.228,739.467,1542.228C742.240,1542.228,743.385,1544.308,743.573,1545.229C743.760,1546.150,744.809,1546.886,745.146,1545.376C745.484,1543.867,748.746,1539.263,752.756,1539.263C756.428,1539.263,757.700,1542.985,757.590,1546.150C757.289,1554.766,745.993,1561.644,744.507,1565.986C743.183,1563.356,733.664,1559.554,733.757,1551.268ZL733.757,1551.268ZZM754.068,1537.128C750.770,1537.128,746.870,1539.521,744.510,1543.499C743.873,1542.062,741.603,1540.497,738.906,1540.497C736.732,1540.497,730.630,1543.167,730.630,1551.784C730.630,1562.904,742.080,1565.189,744.394,1568.645C744.553,1568.883,745.065,1569.062,745.261,1568.494C747.108,1563.138,761.428,1557.086,761.428,1546.187C761.428,1540.074,757.365,1537.128,754.068,1537.128ZZ">
        </path>
      </g>
    </g>
  </g>
</svg>
