<svg xmlns:xlink="http://www.w3.org/1999/xlink" xmlns="http://www.w3.org/2000/svg" style="-webkit-print-color-adjust:exact" id="screenshot-988d1e40-59de-80ee-8003-21a745a22d08" version="1.1" viewBox="288 1467 35 35">
  <g id="shape-988d1e40-59de-80ee-8003-21a745a22d08" rx="0" ry="0">
    <g id="shape-988d1e40-59de-80ee-8003-21a745a77e38">
      <g class="fills" id="fills-988d1e40-59de-80ee-8003-21a745a77e38">
        <path rx="0" ry="0" d="M301.490,1499.083L300.906,1494.417C300.590,1494.295,300.293,1494.149,300.013,1493.979C299.734,1493.809,299.460,1493.627,299.193,1493.432L294.854,1495.255L290.844,1488.328L294.599,1485.484C294.575,1485.314,294.563,1485.150,294.563,1484.992L294.563,1484.008C294.563,1483.850,294.575,1483.686,294.599,1483.516L290.844,1480.672L294.854,1473.745L299.193,1475.568C299.460,1475.373,299.740,1475.191,300.031,1475.021C300.323,1474.851,300.615,1474.705,300.906,1474.583L301.490,1469.917L309.510,1469.917L310.094,1474.583C310.410,1474.705,310.707,1474.851,310.987,1475.021C311.266,1475.191,311.540,1475.373,311.807,1475.568L316.146,1473.745L320.156,1480.672L316.401,1483.516C316.425,1483.686,316.438,1483.850,316.438,1484.008L316.438,1484.992C316.438,1485.150,316.413,1485.314,316.365,1485.484L320.120,1488.328L316.109,1495.255L311.807,1493.432C311.540,1493.627,311.260,1493.809,310.969,1493.979C310.677,1494.149,310.385,1494.295,310.094,1494.417L309.510,1499.083L301.490,1499.083ZZM305.573,1489.604C306.983,1489.604,308.186,1489.106,309.182,1488.109C310.179,1487.113,310.677,1485.910,310.677,1484.500C310.677,1483.090,310.179,1481.887,309.182,1480.891C308.186,1479.894,306.983,1479.396,305.573,1479.396C304.139,1479.396,302.930,1479.894,301.945,1480.891C300.961,1481.887,300.469,1483.090,300.469,1484.500C300.469,1485.910,300.961,1487.113,301.945,1488.109C302.930,1489.106,304.139,1489.604,305.573,1489.604ZZ">
        </path>
      </g>
    </g>
  </g>
</svg>
